<mxfile host="app.diagrams.net" agent="Mozilla/5.0 (Windows NT 10.0; Win64; x64) AppleWebKit/537.36 (KHTML, like Gecko) Chrome/133.0.0.0 Safari/537.36 Edg/133.0.0.0" version="26.1.0">
  <diagram name="第 1 页" id="PBc2LhUqpYH7W5yHt0jf">
    <mxGraphModel dx="1310" dy="772" grid="1" gridSize="10" guides="1" tooltips="1" connect="1" arrows="1" fold="1" page="1" pageScale="1" pageWidth="827" pageHeight="1169" math="0" shadow="0">
      <root>
        <mxCell id="0" />
        <mxCell id="1" parent="0" />
        <mxCell id="FD39LSCpJ7LDg5Dku-e5-1" value="用户" style="rounded=0;whiteSpace=wrap;html=1;" vertex="1" parent="1">
          <mxGeometry x="90" y="50" width="70" height="30" as="geometry" />
        </mxCell>
        <mxCell id="FD39LSCpJ7LDg5Dku-e5-2" value="数据库" style="rounded=0;whiteSpace=wrap;html=1;" vertex="1" parent="1">
          <mxGeometry x="720" y="50" width="70" height="30" as="geometry" />
        </mxCell>
        <mxCell id="FD39LSCpJ7LDg5Dku-e5-3" value="通知业务" style="rounded=0;whiteSpace=wrap;html=1;" vertex="1" parent="1">
          <mxGeometry x="580" y="50" width="70" height="30" as="geometry" />
        </mxCell>
        <mxCell id="FD39LSCpJ7LDg5Dku-e5-4" value="认证拦截器" style="rounded=0;whiteSpace=wrap;html=1;" vertex="1" parent="1">
          <mxGeometry x="395" y="50" width="70" height="30" as="geometry" />
        </mxCell>
        <mxCell id="FD39LSCpJ7LDg5Dku-e5-5" value="前端" style="rounded=0;whiteSpace=wrap;html=1;" vertex="1" parent="1">
          <mxGeometry x="240" y="50" width="70" height="30" as="geometry" />
        </mxCell>
        <mxCell id="FD39LSCpJ7LDg5Dku-e5-6" value="" style="endArrow=none;dashed=1;html=1;rounded=0;entryX=0.5;entryY=1;entryDx=0;entryDy=0;" edge="1" parent="1" target="FD39LSCpJ7LDg5Dku-e5-5">
          <mxGeometry width="50" height="50" relative="1" as="geometry">
            <mxPoint x="275" y="470" as="sourcePoint" />
            <mxPoint x="430" y="220" as="targetPoint" />
          </mxGeometry>
        </mxCell>
        <mxCell id="FD39LSCpJ7LDg5Dku-e5-8" value="" style="endArrow=none;dashed=1;html=1;rounded=0;entryX=0.5;entryY=1;entryDx=0;entryDy=0;" edge="1" parent="1" target="FD39LSCpJ7LDg5Dku-e5-1">
          <mxGeometry width="50" height="50" relative="1" as="geometry">
            <mxPoint x="125" y="470" as="sourcePoint" />
            <mxPoint x="430" y="220" as="targetPoint" />
          </mxGeometry>
        </mxCell>
        <mxCell id="FD39LSCpJ7LDg5Dku-e5-9" value="" style="endArrow=none;dashed=1;html=1;rounded=0;entryX=0.5;entryY=1;entryDx=0;entryDy=0;" edge="1" parent="1" source="FD39LSCpJ7LDg5Dku-e5-13" target="FD39LSCpJ7LDg5Dku-e5-2">
          <mxGeometry width="50" height="50" relative="1" as="geometry">
            <mxPoint x="755" y="470" as="sourcePoint" />
            <mxPoint x="415" y="90" as="targetPoint" />
          </mxGeometry>
        </mxCell>
        <mxCell id="FD39LSCpJ7LDg5Dku-e5-10" value="" style="endArrow=none;dashed=1;html=1;rounded=0;entryX=0.5;entryY=1;entryDx=0;entryDy=0;" edge="1" parent="1" target="FD39LSCpJ7LDg5Dku-e5-3">
          <mxGeometry width="50" height="50" relative="1" as="geometry">
            <mxPoint x="615" y="470" as="sourcePoint" />
            <mxPoint x="295" y="100" as="targetPoint" />
          </mxGeometry>
        </mxCell>
        <mxCell id="FD39LSCpJ7LDg5Dku-e5-11" value="" style="endArrow=none;dashed=1;html=1;rounded=0;entryX=0.5;entryY=1;entryDx=0;entryDy=0;" edge="1" parent="1" target="FD39LSCpJ7LDg5Dku-e5-4">
          <mxGeometry width="50" height="50" relative="1" as="geometry">
            <mxPoint x="430" y="460" as="sourcePoint" />
            <mxPoint x="340" y="110" as="targetPoint" />
          </mxGeometry>
        </mxCell>
        <mxCell id="FD39LSCpJ7LDg5Dku-e5-12" value="" style="rounded=1;whiteSpace=wrap;html=1;rotation=90;" vertex="1" parent="1">
          <mxGeometry x="60" y="150" width="130" height="50" as="geometry" />
        </mxCell>
        <mxCell id="FD39LSCpJ7LDg5Dku-e5-27" style="edgeStyle=orthogonalEdgeStyle;rounded=0;orthogonalLoop=1;jettySize=auto;html=1;exitX=0.5;exitY=0;exitDx=0;exitDy=0;entryX=0.5;entryY=1;entryDx=0;entryDy=0;" edge="1" parent="1">
          <mxGeometry relative="1" as="geometry">
            <mxPoint x="640" y="335" as="sourcePoint" />
            <mxPoint x="730" y="335" as="targetPoint" />
          </mxGeometry>
        </mxCell>
        <mxCell id="FD39LSCpJ7LDg5Dku-e5-28" value="统计用户&lt;br&gt;已读通知" style="edgeLabel;html=1;align=center;verticalAlign=middle;resizable=0;points=[];" vertex="1" connectable="0" parent="FD39LSCpJ7LDg5Dku-e5-27">
          <mxGeometry x="0.0148" relative="1" as="geometry">
            <mxPoint as="offset" />
          </mxGeometry>
        </mxCell>
        <mxCell id="FD39LSCpJ7LDg5Dku-e5-14" value="" style="rounded=1;whiteSpace=wrap;html=1;rotation=90;" vertex="1" parent="1">
          <mxGeometry x="550" y="310" width="130" height="50" as="geometry" />
        </mxCell>
        <mxCell id="FD39LSCpJ7LDg5Dku-e5-15" value="" style="rounded=1;whiteSpace=wrap;html=1;rotation=90;" vertex="1" parent="1">
          <mxGeometry x="340" y="215" width="180" height="50" as="geometry" />
        </mxCell>
        <mxCell id="FD39LSCpJ7LDg5Dku-e5-16" value="" style="rounded=1;whiteSpace=wrap;html=1;rotation=90;" vertex="1" parent="1">
          <mxGeometry x="145" y="255" width="260" height="50" as="geometry" />
        </mxCell>
        <mxCell id="FD39LSCpJ7LDg5Dku-e5-17" value="" style="endArrow=none;dashed=1;html=1;rounded=0;" edge="1" parent="1" target="FD39LSCpJ7LDg5Dku-e5-13">
          <mxGeometry width="50" height="50" relative="1" as="geometry">
            <mxPoint x="755" y="470" as="sourcePoint" />
            <mxPoint x="755" y="80" as="targetPoint" />
          </mxGeometry>
        </mxCell>
        <mxCell id="FD39LSCpJ7LDg5Dku-e5-29" style="edgeStyle=orthogonalEdgeStyle;rounded=0;orthogonalLoop=1;jettySize=auto;html=1;exitX=0.75;exitY=1;exitDx=0;exitDy=0;entryX=0.75;entryY=0;entryDx=0;entryDy=0;dashed=1;" edge="1" parent="1" source="FD39LSCpJ7LDg5Dku-e5-13" target="FD39LSCpJ7LDg5Dku-e5-14">
          <mxGeometry relative="1" as="geometry" />
        </mxCell>
        <mxCell id="FD39LSCpJ7LDg5Dku-e5-13" value="" style="rounded=1;whiteSpace=wrap;html=1;rotation=90;" vertex="1" parent="1">
          <mxGeometry x="690" y="310" width="130" height="50" as="geometry" />
        </mxCell>
        <mxCell id="FD39LSCpJ7LDg5Dku-e5-19" style="edgeStyle=orthogonalEdgeStyle;rounded=0;orthogonalLoop=1;jettySize=auto;html=1;exitX=0.75;exitY=0;exitDx=0;exitDy=0;entryX=0.223;entryY=0.933;entryDx=0;entryDy=0;entryPerimeter=0;" edge="1" parent="1" source="FD39LSCpJ7LDg5Dku-e5-12" target="FD39LSCpJ7LDg5Dku-e5-16">
          <mxGeometry relative="1" as="geometry" />
        </mxCell>
        <mxCell id="FD39LSCpJ7LDg5Dku-e5-20" value="登录后进入首页" style="edgeLabel;html=1;align=center;verticalAlign=middle;resizable=0;points=[];" vertex="1" connectable="0" parent="FD39LSCpJ7LDg5Dku-e5-19">
          <mxGeometry x="-0.0274" y="-2" relative="1" as="geometry">
            <mxPoint x="-1" y="-1" as="offset" />
          </mxGeometry>
        </mxCell>
        <mxCell id="FD39LSCpJ7LDg5Dku-e5-21" style="edgeStyle=orthogonalEdgeStyle;rounded=0;orthogonalLoop=1;jettySize=auto;html=1;exitX=0.25;exitY=0;exitDx=0;exitDy=0;entryX=0.359;entryY=0.973;entryDx=0;entryDy=0;entryPerimeter=0;" edge="1" parent="1" source="FD39LSCpJ7LDg5Dku-e5-16" target="FD39LSCpJ7LDg5Dku-e5-15">
          <mxGeometry relative="1" as="geometry" />
        </mxCell>
        <mxCell id="FD39LSCpJ7LDg5Dku-e5-22" value="获取未读通知数" style="edgeLabel;html=1;align=center;verticalAlign=middle;resizable=0;points=[];" vertex="1" connectable="0" parent="FD39LSCpJ7LDg5Dku-e5-21">
          <mxGeometry x="-0.0894" y="-1" relative="1" as="geometry">
            <mxPoint x="-1" as="offset" />
          </mxGeometry>
        </mxCell>
        <mxCell id="FD39LSCpJ7LDg5Dku-e5-23" style="edgeStyle=orthogonalEdgeStyle;rounded=0;orthogonalLoop=1;jettySize=auto;html=1;exitX=0.5;exitY=0;exitDx=0;exitDy=0;entryX=0.75;entryY=0;entryDx=0;entryDy=0;" edge="1" parent="1" source="FD39LSCpJ7LDg5Dku-e5-15" target="FD39LSCpJ7LDg5Dku-e5-15">
          <mxGeometry relative="1" as="geometry" />
        </mxCell>
        <mxCell id="FD39LSCpJ7LDg5Dku-e5-24" value="根据token获取用户id" style="edgeLabel;html=1;align=center;verticalAlign=middle;resizable=0;points=[];" vertex="1" connectable="0" parent="FD39LSCpJ7LDg5Dku-e5-23">
          <mxGeometry x="-0.051" y="2" relative="1" as="geometry">
            <mxPoint as="offset" />
          </mxGeometry>
        </mxCell>
        <mxCell id="FD39LSCpJ7LDg5Dku-e5-25" value="" style="endArrow=classic;html=1;rounded=0;exitX=0.889;exitY=0.047;exitDx=0;exitDy=0;exitPerimeter=0;entryX=0.308;entryY=0.973;entryDx=0;entryDy=0;entryPerimeter=0;" edge="1" parent="1" source="FD39LSCpJ7LDg5Dku-e5-15" target="FD39LSCpJ7LDg5Dku-e5-14">
          <mxGeometry width="50" height="50" relative="1" as="geometry">
            <mxPoint x="520" y="360" as="sourcePoint" />
            <mxPoint x="570" y="310" as="targetPoint" />
          </mxGeometry>
        </mxCell>
        <mxCell id="FD39LSCpJ7LDg5Dku-e5-26" value="用户id" style="edgeLabel;html=1;align=center;verticalAlign=middle;resizable=0;points=[];" vertex="1" connectable="0" parent="FD39LSCpJ7LDg5Dku-e5-25">
          <mxGeometry x="-0.0192" y="-3" relative="1" as="geometry">
            <mxPoint as="offset" />
          </mxGeometry>
        </mxCell>
        <mxCell id="FD39LSCpJ7LDg5Dku-e5-30" style="edgeStyle=orthogonalEdgeStyle;rounded=0;orthogonalLoop=1;jettySize=auto;html=1;exitX=0.867;exitY=1.013;exitDx=0;exitDy=0;entryX=0.892;entryY=-0.04;entryDx=0;entryDy=0;entryPerimeter=0;exitPerimeter=0;dashed=1;" edge="1" parent="1" source="FD39LSCpJ7LDg5Dku-e5-14" target="FD39LSCpJ7LDg5Dku-e5-16">
          <mxGeometry relative="1" as="geometry" />
        </mxCell>
      </root>
    </mxGraphModel>
  </diagram>
</mxfile>
